<svg width="14" height="15" viewBox="0 0 14 15" fill="none" xmlns="http://www.w3.org/2000/svg">
<path d="M6.97204 0.199951C7.89588 0.199951 8.78187 0.567383 9.43513 1.22142C10.0884 1.87545 10.4554 2.76251 10.4554 3.68745C10.4554 4.61239 10.0884 5.49945 9.43513 6.15349C8.78187 6.80752 7.89588 7.17495 6.97204 7.17495C6.0482 7.17495 5.1622 6.80752 4.50895 6.15349C3.8557 5.49945 3.4887 4.61239 3.4887 3.68745C3.4887 2.76251 3.8557 1.87545 4.50895 1.22142C5.1622 0.567383 6.0482 0.199951 6.97204 0.199951ZM6.97204 1.9437C6.51012 1.9437 6.06712 2.12742 5.74049 2.45443C5.41387 2.78145 5.23037 3.22498 5.23037 3.68745C5.23037 4.14992 5.41387 4.59345 5.74049 4.92047C6.06712 5.24748 6.51012 5.4312 6.97204 5.4312C7.43396 5.4312 7.87696 5.24748 8.20358 4.92047C8.53021 4.59345 8.7137 4.14992 8.7137 3.68745C8.7137 3.22498 8.53021 2.78145 8.20358 2.45443C7.87696 2.12742 7.43396 1.9437 6.97204 1.9437ZM6.97204 8.04683C9.29716 8.04683 13.9387 9.20642 13.9387 11.5343V14.15H0.00537109V11.5343C0.00537109 9.20642 4.64691 8.04683 6.97204 8.04683ZM6.97204 9.70339C4.38566 9.70339 1.65995 10.9763 1.65995 11.5343V12.4934H12.2841V11.5343C12.2841 10.9763 9.55841 9.70339 6.97204 9.70339Z" fill="#956439"/>
</svg>
